<?xml version="1.0" encoding="UTF-8" standalone="no"?>
<svg
   xmlns:dc="http://purl.org/dc/elements/1.1/"
   xmlns:cc="http://creativecommons.org/ns#"
   xmlns:rdf="http://www.w3.org/1999/02/22-rdf-syntax-ns#"
   xmlns:svg="http://www.w3.org/2000/svg"
   xmlns="http://www.w3.org/2000/svg"
   xmlns:sodipodi="http://sodipodi.sourceforge.net/DTD/sodipodi-0.dtd"
   xmlns:inkscape="http://www.inkscape.org/namespaces/inkscape"
   version="1.1"
   x="0"
   y="0"
   width="229.8084"
   height="342.09"
   viewBox="0 0 229.8084 342.09"
   id="svg5283"
   sodipodi:docname="hourglass-clipart-publicdomainvectors.svg"
   inkscape:version="0.92.2 2405546, 2018-03-11">
  <metadata
     id="metadata5289">
    <rdf:RDF>
      <cc:Work
         rdf:about="">
        <dc:format>image/svg+xml</dc:format>
        <dc:type
           rdf:resource="http://purl.org/dc/dcmitype/StillImage" />
        <dc:title></dc:title>
      </cc:Work>
    </rdf:RDF>
  </metadata>
  <defs
     id="defs5287" />
  <sodipodi:namedview
     pagecolor="#ffffff"
     bordercolor="#666666"
     borderopacity="1"
     objecttolerance="10"
     gridtolerance="10"
     guidetolerance="10"
     inkscape:pageopacity="0"
     inkscape:pageshadow="2"
     inkscape:window-width="746"
     inkscape:window-height="480"
     id="namedview5285"
     showgrid="false"
     inkscape:pagecheckerboard="true"
     fit-margin-top="0"
     fit-margin-left="0"
     fit-margin-right="0"
     fit-margin-bottom="0"
     inkscape:zoom="0.41330998"
     inkscape:cx="259.00009"
     inkscape:cy="214.25"
     inkscape:window-x="0"
     inkscape:window-y="23"
     inkscape:window-maximized="0"
     inkscape:current-layer="svg5283" />
  <g
     id="Layer_1"
     transform="translate(8.7047977e-5,-157.66)">
    <path
       d="M 181.077,390.147 C 171.428,374.79 158.118,364.032 145.301,361.25 l -6.374,4.981 c 15.206,4.967 25.972,18.338 31.207,26.197 z m 1.806,0.773 -13.268,2.768 -0.21,-0.318 c -5.183,-7.86 -16.213,-21.735 -31.833,-26.383 l -1.049,-0.311 8.497,-6.638 0.257,0.054 c 13.381,2.797 27.281,14.065 37.185,30.147 z m 3.273,8.534 c -0.969,-2.102 -2.076,-4.241 -3.297,-6.368 l -10.853,2.262 c 1.302,2.127 2.488,4.248 3.53,6.32 z m 1.607,0.816 -12.848,2.678 -0.194,-0.389 c -1.184,-2.385 -2.562,-4.842 -4.096,-7.299 l -0.428,-0.685 13.229,-2.758 0.204,0.351 c 1.448,2.493 2.741,5.004 3.845,7.463 z m 3.082,16.723 c 0.057,-3.387 -0.837,-7.688 -2.599,-12.504 l -10.414,2.172 c 1.908,4.605 3,8.705 3.057,11.468 z m 1.091,1.009 -12.209,1.397 0.029,-0.662 c 0.121,-2.699 -1.054,-7.17 -3.228,-12.268 l -0.269,-0.631 12.705,-2.652 0.171,0.453 c 2.012,5.373 2.989,10.172 2.822,13.883 z M 85.117,276.657 C 71.245,268.69 63.437,253.403 59.915,244.64 H 48.736 c 6.311,17.003 17.145,30.253 29.123,35.592 z m 2.443,0.052 -9.673,4.767 -0.24,-0.105 C 65.119,275.901 53.812,262.032 47.4,244.268 l -0.273,-0.756 h 13.554 l 0.141,0.356 c 3.47,8.75 11.433,24.588 25.776,32.324 z M 58.681,241.398 c -0.843,-2.352 -1.57,-4.669 -2.168,-6.906 H 45.667 c 0.517,2.253 1.164,4.571 1.927,6.906 z m 1.611,1.127 H 46.779 l -0.128,-0.386 c -0.909,-2.74 -1.663,-5.462 -2.241,-8.09 l -0.15,-0.685 h 13.123 l 0.11,0.422 c 0.671,2.57 1.519,5.256 2.52,7.982 z m -5.007,-13.389 c -0.928,-4.898 -1.158,-9.135 -0.651,-11.854 l -9.978,-0.918 c -0.748,3.304 -0.751,7.698 -0.009,12.772 z m 1.371,1.127 H 43.678 l -0.073,-0.478 c -0.874,-5.669 -0.849,-10.568 0.071,-14.166 l 0.119,-0.466 12.238,1.125 -0.165,0.641 c -0.671,2.62 -0.431,7.238 0.655,12.67 z M 127.743,444.5 c 0,-0.933 -0.76,-1.691 -1.692,-1.691 -0.932,0 -1.691,0.758 -1.691,1.691 0,0.932 0.759,1.692 1.691,1.692 0.932,0 1.692,-0.76 1.692,-1.692 m 1.127,0 c 0,1.555 -1.264,2.819 -2.819,2.819 -1.554,0 -2.819,-1.264 -2.819,-2.819 0,-1.554 1.265,-2.82 2.819,-2.82 1.555,0 2.819,1.266 2.819,2.82 m -15.384,-92.601 c 0,0.932 0.758,1.691 1.691,1.691 0.932,0 1.691,-0.759 1.691,-1.691 0,-0.934 -0.759,-1.691 -1.691,-1.691 -0.933,0 -1.691,0.757 -1.691,1.691 m -1.128,0 c 0,-1.553 1.264,-2.818 2.819,-2.818 1.553,0 2.819,1.265 2.819,2.818 0,1.555 -1.266,2.818 -2.819,2.818 -1.555,0 -2.819,-1.263 -2.819,-2.818 m -3.324,12.779 c 0,-0.933 -0.759,-1.691 -1.692,-1.691 -0.932,0 -1.691,0.758 -1.691,1.691 0,0.932 0.759,1.692 1.691,1.692 0.933,0 1.692,-0.76 1.692,-1.692 m -1.692,2.819 c -1.553,0 -2.819,-1.264 -2.819,-2.819 0,-1.554 1.266,-2.82 2.819,-2.82 1.554,0 2.819,1.266 2.819,2.82 0,1.555 -1.265,2.819 -2.819,2.819 m 12.912,20.453 c -0.968,0 -1.753,0.787 -1.753,1.754 0,0.968 0.785,1.754 1.753,1.754 0.969,0 1.753,-0.786 1.753,-1.754 0,-0.967 -0.784,-1.754 -1.753,-1.754 m 4.412,47.156 c 0.946,-0.205 1.549,-1.135 1.347,-2.084 -0.204,-0.945 -1.136,-1.549 -2.083,-1.346 -0.947,0.203 -1.551,1.135 -1.347,2.082 0.203,0.948 1.135,1.551 2.083,1.348 m 38.339,11.139 c 0.963,0.095 1.822,-0.608 1.918,-1.573 0.097,-0.963 -0.607,-1.82 -1.57,-1.918 -0.964,-0.097 -1.823,0.608 -1.919,1.573 -0.097,0.961 0.607,1.822 1.571,1.918 m -16.666,-19.364 c 0.964,0.098 1.824,-0.605 1.919,-1.57 0.096,-0.963 -0.606,-1.824 -1.57,-1.92 -0.964,-0.096 -1.823,0.608 -1.92,1.572 -0.096,0.963 0.607,1.823 1.571,1.918 M 98.223,419.5 c 0.968,0 1.754,-0.785 1.754,-1.753 0,-0.969 -0.786,-1.754 -1.754,-1.754 -0.969,0 -1.754,0.785 -1.754,1.754 0,0.968 0.785,1.753 1.754,1.753 m 43.781,33.358 c 0.968,0 1.753,-0.785 1.753,-1.754 0,-0.969 -0.785,-1.754 -1.753,-1.754 -0.969,0 -1.754,0.785 -1.754,1.754 0,0.969 0.785,1.754 1.754,1.754 m -25.314,3.506 c 0.968,0 1.753,-0.785 1.753,-1.752 0,-0.969 -0.785,-1.754 -1.753,-1.754 -0.968,0 -1.753,0.785 -1.753,1.754 0,0.967 0.785,1.752 1.753,1.752 m -27.488,-4.51 c 0.969,0 1.754,-0.785 1.754,-1.752 0,-0.969 -0.785,-1.754 -1.754,-1.754 -0.968,0 -1.753,0.785 -1.753,1.754 0,0.967 0.785,1.752 1.753,1.752 m -7.1,-18.965 c 0.969,0 1.753,-0.785 1.753,-1.754 0,-0.967 -0.784,-1.752 -1.753,-1.752 -0.969,0 -1.753,0.785 -1.753,1.752 0,0.969 0.784,1.754 1.753,1.754 M 110.1,375.702 c 0,0.968 0.784,1.756 1.753,1.756 0.968,0 1.753,-0.788 1.753,-1.756 0,-0.967 -0.785,-1.752 -1.753,-1.752 -0.969,0 -1.753,0.785 -1.753,1.752 m -1.004,-17.41 c 0.968,0 1.753,-0.786 1.753,-1.754 0,-0.967 -0.785,-1.752 -1.753,-1.752 -0.969,0 -1.754,0.785 -1.754,1.752 0,0.968 0.785,1.754 1.754,1.754 m 27.003,-82.605 c 0.968,0 1.754,-0.784 1.754,-1.753 0,-0.969 -0.786,-1.754 -1.754,-1.754 -0.969,0 -1.753,0.785 -1.753,1.754 0,0.969 0.784,1.753 1.753,1.753 m 10.415,4.508 c 0.968,0 1.753,-0.784 1.753,-1.753 0,-0.968 -0.785,-1.753 -1.753,-1.753 -0.969,0 -1.753,0.785 -1.753,1.753 0,0.969 0.784,1.753 1.753,1.753 m -29.082,6.743 c 0.968,0 1.753,-0.785 1.753,-1.752 0,-0.969 -0.785,-1.756 -1.753,-1.756 -0.969,0 -1.753,0.787 -1.753,1.756 0,0.967 0.784,1.752 1.753,1.752 m 2.822,76.553 c 0,-0.969 -0.785,-1.754 -1.753,-1.754 -0.969,0 -1.753,0.785 -1.753,1.754 0,0.968 0.784,1.756 1.753,1.756 0.968,0 1.753,-0.788 1.753,-1.756 m 0.699,-6.953 c 0,0.441 0.359,0.8 0.801,0.8 0.442,0 0.802,-0.359 0.802,-0.8 0,-0.442 -0.36,-0.803 -0.802,-0.803 -0.442,0 -0.801,0.361 -0.801,0.803 m -0.534,0 c 0,-0.737 0.599,-1.336 1.335,-1.336 0.737,0 1.336,0.599 1.336,1.336 0,0.736 -0.599,1.336 -1.336,1.336 -0.736,0 -1.335,-0.6 -1.335,-1.336 m -4.44,13.521 c 0,-0.441 -0.36,-0.803 -0.802,-0.803 -0.442,0 -0.802,0.362 -0.802,0.803 0,0.443 0.36,0.801 0.802,0.801 0.442,0 0.802,-0.358 0.802,-0.801 m 0.534,0 c 0,0.736 -0.6,1.336 -1.336,1.336 -0.738,0 -1.336,-0.6 -1.336,-1.336 0,-0.736 0.598,-1.336 1.336,-1.336 0.736,0 1.336,0.6 1.336,1.336 m -2.969,14.164 c 0,-0.933 -0.759,-1.691 -1.691,-1.691 -0.933,0 -1.692,0.758 -1.692,1.691 0,0.932 0.759,1.692 1.692,1.692 0.932,0 1.691,-0.76 1.691,-1.692 m 1.127,0 c 0,1.553 -1.265,2.819 -2.818,2.819 -1.554,0 -2.819,-1.266 -2.819,-2.819 0,-1.555 1.265,-2.818 2.819,-2.818 1.553,0 2.818,1.263 2.818,2.818 m 8.774,-4.51 c 0,-0.935 -0.759,-1.691 -1.691,-1.691 -0.933,0 -1.691,0.756 -1.691,1.691 0,0.932 0.758,1.692 1.691,1.692 0.932,0 1.691,-0.76 1.691,-1.692 m 1.128,0 c 0,1.553 -1.264,2.819 -2.819,2.819 -1.554,0 -2.819,-1.266 -2.819,-2.819 0,-1.556 1.265,-2.82 2.819,-2.82 1.555,0 2.819,1.264 2.819,2.82 m -14.412,31.289 c 0,0.932 0.759,1.692 1.692,1.692 0.932,0 1.691,-0.76 1.691,-1.692 0,-0.933 -0.759,-1.691 -1.691,-1.691 -0.933,0 -1.692,0.758 -1.692,1.691 m -1.127,0 c 0,-1.554 1.265,-2.818 2.819,-2.818 1.553,0 2.818,1.264 2.818,2.818 0,1.555 -1.265,2.819 -2.818,2.819 -1.554,0 -2.819,-1.264 -2.819,-2.819 M 121.717,277.94 c 0,0.933 0.758,1.691 1.691,1.691 0.933,0 1.691,-0.758 1.691,-1.691 0,-0.932 -0.758,-1.691 -1.691,-1.691 -0.933,0 -1.691,0.759 -1.691,1.691 m -1.128,0 c 0,-1.556 1.265,-2.819 2.819,-2.819 1.553,0 2.819,1.263 2.819,2.819 0,1.554 -1.266,2.818 -2.819,2.818 -1.554,0 -2.819,-1.264 -2.819,-2.818 m 14.32,4.99 c 0,0.932 0.759,1.692 1.692,1.692 0.932,0 1.691,-0.76 1.691,-1.692 0,-0.932 -0.759,-1.691 -1.691,-1.691 -0.933,0 -1.692,0.759 -1.692,1.691 m -1.127,0 c 0,-1.554 1.264,-2.819 2.819,-2.819 1.553,0 2.818,1.265 2.818,2.819 0,1.555 -1.265,2.819 -2.818,2.819 -1.555,0 -2.819,-1.264 -2.819,-2.819 m 13.296,-12.027 c 0,0.933 0.758,1.691 1.691,1.691 0.933,0 1.691,-0.758 1.691,-1.691 0,-0.934 -0.758,-1.691 -1.691,-1.691 -0.933,0 -1.691,0.757 -1.691,1.691 m -1.128,0 c 0,-1.555 1.264,-2.819 2.819,-2.819 1.554,0 2.819,1.264 2.819,2.819 0,1.554 -1.265,2.819 -2.819,2.819 -1.555,0 -2.819,-1.265 -2.819,-2.819 m -40.9,12.027 c 0,0.932 0.759,1.692 1.692,1.692 0.932,0 1.691,-0.76 1.691,-1.692 0,-0.932 -0.759,-1.691 -1.691,-1.691 -0.933,0 -1.692,0.759 -1.692,1.691 m -1.127,0 c 0,-1.554 1.265,-2.819 2.819,-2.819 1.554,0 2.819,1.265 2.819,2.819 0,1.555 -1.265,2.819 -2.819,2.819 -1.554,0 -2.819,-1.264 -2.819,-2.819 m 24.947,138.197 c 0,0.934 0.759,1.692 1.692,1.692 0.932,0 1.691,-0.758 1.691,-1.692 0,-0.933 -0.759,-1.691 -1.691,-1.691 -0.933,0 -1.692,0.758 -1.692,1.691 m -1.127,0 c 0,-1.554 1.264,-2.818 2.819,-2.818 1.554,0 2.818,1.264 2.818,2.818 0,1.555 -1.264,2.821 -2.818,2.821 -1.555,0 -2.819,-1.266 -2.819,-2.821 M 91.52,431.135 c 0,0.934 0.758,1.692 1.691,1.692 0.932,0 1.691,-0.758 1.691,-1.692 0,-0.933 -0.759,-1.691 -1.691,-1.691 -0.933,0 -1.691,0.758 -1.691,1.691 m -1.128,0 c 0,-1.554 1.265,-2.818 2.819,-2.818 1.555,0 2.819,1.264 2.819,2.818 0,1.555 -1.264,2.819 -2.819,2.819 -1.554,0 -2.819,-1.264 -2.819,-2.819 M 100.54,449.6 c 0,0.932 0.759,1.692 1.691,1.692 0.933,0 1.692,-0.76 1.692,-1.692 0,-0.935 -0.759,-1.691 -1.692,-1.691 -0.932,0 -1.691,0.756 -1.691,1.691 m -1.127,0 c 0,-1.555 1.264,-2.82 2.818,-2.82 1.555,0 2.819,1.265 2.819,2.82 0,1.553 -1.264,2.818 -2.819,2.818 -1.554,0 -2.818,-1.265 -2.818,-2.818 m 43.155,-12.992 c 0,0.93 0.758,1.689 1.691,1.689 0.932,0 1.691,-0.759 1.691,-1.689 0,-0.934 -0.759,-1.691 -1.691,-1.691 -0.933,0 -1.691,0.757 -1.691,1.691 m -1.128,0 c 0,-1.557 1.264,-2.82 2.819,-2.82 1.554,0 2.819,1.263 2.819,2.82 0,1.555 -1.265,2.818 -2.819,2.818 -1.555,0 -2.819,-1.263 -2.819,-2.818 m -31.971,-6.498 c 0,0.933 0.759,1.691 1.692,1.691 0.932,0 1.691,-0.758 1.691,-1.691 0,-0.932 -0.759,-1.692 -1.691,-1.692 -0.933,0 -1.692,0.76 -1.692,1.692 m -1.127,0 c 0,-1.555 1.264,-2.818 2.819,-2.818 1.553,0 2.818,1.263 2.818,2.818 0,1.555 -1.265,2.818 -2.818,2.818 -1.555,0 -2.819,-1.263 -2.819,-2.818 m -35.26,14.39 c 0,0.932 0.758,1.692 1.691,1.692 0.932,0 1.691,-0.76 1.691,-1.692 0,-0.933 -0.759,-1.691 -1.691,-1.691 -0.933,0 -1.691,0.758 -1.691,1.691 m -1.128,0 c 0,-1.554 1.264,-2.82 2.819,-2.82 1.554,0 2.819,1.266 2.819,2.82 0,1.555 -1.265,2.819 -2.819,2.819 -1.555,0 -2.819,-1.264 -2.819,-2.819 M 39.541,203.392 c 2.708,0 5.098,-1.957 5.555,-4.717 0.509,-3.071 -1.568,-5.974 -4.639,-6.484 -4.622,-0.765 -8.942,-1.599 -12.84,-2.476 -3.036,-0.681 -6.053,1.224 -6.739,4.262 -0.683,3.037 1.226,6.054 4.263,6.738 4.107,0.924 8.638,1.799 13.472,2.601 0.313,0.052 0.623,0.076 0.928,0.076 m 39.553,4.432 c 4.44,0.298 8.988,0.545 13.517,0.738 l 0.242,0.005 c 3.004,0 5.502,-2.37 5.63,-5.4 0.131,-3.11 -2.283,-5.739 -5.395,-5.871 -4.437,-0.188 -8.891,-0.431 -13.24,-0.722 -3.1,-0.212 -5.794,2.141 -6.002,5.247 -0.209,3.107 2.141,5.795 5.248,6.003 m 53.939,0.982 0.183,-0.003 c 4.58,-0.146 9.138,-0.353 13.546,-0.616 3.109,-0.187 5.478,-2.857 5.292,-5.966 -0.186,-3.108 -2.869,-5.472 -5.965,-5.291 -4.305,0.258 -8.756,0.461 -13.232,0.603 -3.111,0.099 -5.554,2.701 -5.456,5.815 0.097,3.05 2.601,5.458 5.632,5.458 m -80.939,-3.542 c 4.337,0.545 8.876,1.04 13.494,1.474 0.179,0.016 0.357,0.026 0.534,0.026 2.876,0 5.331,-2.191 5.607,-5.111 0.29,-3.1 -1.986,-5.849 -5.085,-6.141 -4.502,-0.423 -8.925,-0.906 -13.146,-1.435 -3.096,-0.393 -5.908,1.801 -6.295,4.891 -0.388,3.09 1.802,5.908 4.891,6.296 m 134.243,-1.59 c 0.33,0 0.665,-0.029 1.003,-0.09 4.726,-0.848 9.255,-1.8 13.457,-2.833 3.023,-0.742 4.873,-3.793 4.131,-6.819 -0.741,-3.023 -3.794,-4.872 -6.819,-4.131 -3.972,0.975 -8.266,1.878 -12.762,2.686 -3.065,0.549 -5.103,3.479 -4.553,6.544 0.49,2.729 2.865,4.643 5.543,4.643 m -80.2,5.298 c 3.405,0.063 6.85,0.094 10.239,0.094 1.099,0 2.198,-0.003 3.296,-0.01 3.114,-0.019 5.622,-2.558 5.603,-5.672 -0.018,-3.113 -2.568,-5.648 -5.671,-5.604 -4.398,0.027 -8.844,-0.001 -13.259,-0.082 -3.134,-0.061 -5.684,2.421 -5.741,5.533 -0.057,3.114 2.42,5.684 5.533,5.741 m 53.641,-1.785 c 0.175,0 0.349,-0.008 0.525,-0.024 4.639,-0.428 9.191,-0.933 13.529,-1.498 3.086,-0.404 5.263,-3.235 4.859,-6.322 -0.403,-3.088 -3.233,-5.26 -6.321,-4.86 -4.195,0.549 -8.604,1.037 -13.102,1.452 -3.101,0.285 -5.383,3.031 -5.097,6.131 0.27,2.926 2.727,5.121 5.607,5.121 m 10.227,49.364 c -10.001,2.44 -74.301,22.818 -84.753,27.678 8.777,4.646 19.688,7.189 30.956,7.189 26.508,0 52.537,-17.067 53.797,-34.867 m 2.292,-2.037 0.01,0.697 c 0,19.411 -27.787,38.461 -56.099,38.461 -12.361,0 -24.33,-2.976 -33.702,-8.384 l -0.484,-0.28 -0.071,-0.552 c -0.068,-0.524 0.184,-0.989 0.746,-1.382 3.398,-2.37 33.188,-12.08 45.838,-16.146 10.238,-3.29 20.776,-6.59 28.908,-9.057 13.467,-4.082 13.712,-3.954 14.248,-3.673 z m 46.965,224.695 c -0.471,0.124 -0.944,0.202 -1.412,0.202 -2.338,0 -4.523,-1.465 -5.329,-3.801 -1.016,-2.943 0.549,-6.152 3.491,-7.168 1.622,-0.561 3.171,-1.147 4.666,-1.746 -0.166,-0.992 -0.393,-1.916 -0.703,-2.756 -12.932,7.857 -54.281,13.603 -103.296,13.603 -49.338,0 -90.906,-5.822 -103.546,-13.755 -0.162,0.556 -0.302,1.209 -0.42,1.966 0.841,-0.007 1.695,0.151 2.503,0.543 1.57,0.762 3.468,1.526 5.637,2.268 2.946,1.01 4.516,4.215 3.507,7.16 -0.802,2.342 -2.991,3.813 -5.334,3.813 -0.605,0 -1.222,-0.1 -1.827,-0.305 -1.67,-0.572 -3.211,-1.166 -4.634,-1.772 l 0.002,0.082 c 0.073,1.071 5.226,5.916 29.106,10.053 20.07,3.475 46.706,5.389 75.006,5.389 28.298,0 54.936,-1.914 75.004,-5.389 17.255,-2.99 24.73,-6.347 27.579,-8.387 M 36.123,205.362 c 20.069,3.475 46.704,5.389 75,5.389 28.297,0 54.933,-1.914 75.002,-5.389 17.254,-2.988 24.731,-6.346 27.581,-8.384 -0.47,0.122 -0.942,0.201 -1.41,0.201 -2.339,0 -4.524,-1.468 -5.33,-3.803 -1.014,-2.942 0.549,-6.152 3.493,-7.168 1.624,-0.559 3.172,-1.147 4.665,-1.746 -0.166,-0.99 -0.392,-1.914 -0.704,-2.754 -12.929,7.856 -54.279,13.601 -103.297,13.601 -49.335,0 -90.905,-5.82 -103.545,-13.755 -0.161,0.558 -0.302,1.21 -0.419,1.967 0.841,-0.008 1.696,0.151 2.504,0.544 1.565,0.759 3.461,1.522 5.637,2.268 2.945,1.008 4.515,4.214 3.505,7.16 -0.802,2.34 -2.99,3.812 -5.333,3.812 -0.606,0 -1.223,-0.098 -1.828,-0.306 -1.671,-0.573 -3.211,-1.166 -4.633,-1.769 l 10e-4,0.079 c 0.073,1.071 5.23,5.917 29.111,10.053 m 169.898,224.217 c 0,6.527 -2.267,12.244 -6.276,17.191 4.018,0.855 7.607,1.773 10.722,2.744 -1.279,-7.57 -2.174,-15.139 -2.915,-22.707 -1.018,-10.637 -1.644,-21.275 -1.88,-31.912 -0.219,-10.637 0.315,-21.273 0.831,-31.91 0.259,-5.32 0.476,-10.639 0.951,-15.957 0.456,-5.319 1.122,-10.637 1.741,-15.955 0.037,-0.311 0.07,-0.621 0.107,-0.932 -3.38,-1.408 -5.757,-4.744 -5.757,-8.635 0,-4.418 3.067,-8.111 7.184,-9.091 0.007,-0.172 0.016,-0.348 0.021,-0.52 -4.128,-0.975 -7.205,-4.672 -7.205,-9.098 0,-4.287 2.887,-7.89 6.822,-8.996 -0.76,-8.849 -2.387,-17.7 -3.112,-26.551 -0.44,-5.317 -0.536,-10.635 -0.375,-15.955 0.105,-5.318 0.362,-10.636 0.75,-15.955 0.387,-5.319 0.913,-10.637 1.643,-15.956 0.642,-4.569 1.386,-9.137 2.429,-13.707 -1.816,0.764 -3.949,1.527 -6.441,2.281 0.497,2.024 0.76,4.137 0.76,6.344 0,44.841 -30.083,83.97 -71.53,93.036 l -0.6,0.094 c -6.568,0.6 -10.076,8.537 -10.041,15.703 0.01,2.069 0.5,12.426 9.171,13.133 l 0.596,0.086 c 41.953,8.719 72.404,47.926 72.404,93.225 m -18.083,15.045 c 5.251,-4.272 8.337,-9.295 8.337,-15.045 0,-40.608 -27.053,-75.733 -64.371,-83.627 -9.069,-0.885 -15.604,-7.678 -17.341,-17.532 -1.582,10.164 -7.778,17.164 -16.406,18.071 -35.958,8.82 -62.019,43.707 -62.019,83.088 0,5.806 3.141,10.871 8.483,15.17 2.66,-0.42 5.442,-0.819 8.332,-1.192 -0.341,-1 -0.536,-2.035 -0.536,-3.119 v -0.443 l 0.302,-0.325 c 1.882,-2.017 46.262,-49.433 61.801,-49.433 6.585,0 32.632,17.726 40.458,23.16 5.529,3.836 33.115,23.186 33.115,27.041 0,1.43 -0.309,2.787 -0.895,4.072 0.249,0.039 0.493,0.076 0.74,0.114 m -67.683,15.777 c 31.713,0 65.414,-6.959 65.582,-19.865 -2.115,-5.096 -62.768,-48.045 -71.317,-48.045 -13.924,0 -55.768,44.06 -59.835,48.379 0.741,12.691 34.132,19.531 65.57,19.531 m 75.522,-250.02 c -2.455,0.534 -5.132,1.059 -8.06,1.571 -20.49,3.589 -47.691,5.565 -76.594,5.565 -28.096,0 -54.567,-1.872 -74.845,-5.273 -0.089,0.676 -0.14,1.36 -0.14,2.058 0,39.594 25.154,73.624 61.216,82.886 9.825,1.137 15.652,10.402 17.192,20.508 1.634,-9.807 7.781,-18.817 18.133,-19.936 36.866,-8.209 63.596,-43.26 63.596,-83.458 0,-1.347 -0.172,-2.654 -0.498,-3.921 M 22.8,394.895 c -0.235,10.637 -0.86,21.275 -1.879,31.912 -0.801,8.186 -1.778,16.373 -3.232,24.559 3.895,-1.606 9.033,-3.096 15.194,-4.44 -5.038,-6.099 -6.49,-12.265 -6.49,-17.347 0,-21.621 7.049,-42.784 19.849,-59.584 12.659,-16.616 30.406,-28.356 49.968,-33.061 l 0.368,-0.088 0.376,-0.031 c 6.051,-0.494 8.231,-7.602 8.261,-13.539 0.037,-7.66 -3.381,-15.899 -9.164,-16.426 l -0.379,-0.033 -0.368,-0.094 C 54.729,296.491 26.393,258.487 26.393,214.302 c 0,-1.325 0.095,-2.618 0.278,-3.877 -3.588,-0.776 -6.682,-1.57 -9.372,-2.373 0.776,3.777 1.372,7.555 1.903,11.332 0.729,5.319 1.256,10.637 1.642,15.956 0.389,5.319 0.646,10.637 0.75,15.955 0.162,5.32 0.067,10.638 -0.376,15.955 -0.725,8.851 -2.351,17.702 -3.109,26.551 3.934,1.106 6.821,4.709 6.821,8.996 0,4.426 -3.077,8.123 -7.206,9.098 0.006,0.172 0.015,0.348 0.022,0.52 4.117,0.98 7.184,4.673 7.184,9.091 0,3.891 -2.377,7.227 -5.757,8.635 0.036,0.311 0.069,0.621 0.107,0.932 0.618,5.318 1.285,10.636 1.74,15.955 0.476,5.318 0.692,10.637 0.95,15.957 0.518,10.637 1.052,21.273 0.83,31.91 m 206.573,74.297 c 1.002,2.392 0.212,5.066 -1.732,6.594 -0.046,0.711 -0.086,1.31 -0.086,1.757 0,4.567 -3.554,11.26 -34.284,16.643 -20.489,3.588 -47.69,5.564 -76.592,5.564 -28.903,0 -56.104,-1.976 -76.594,-5.564 C 9.355,488.803 5.801,482.11 5.801,477.543 c 0,-0.349 -0.033,-0.88 -0.07,-1.548 -0.304,-5.405 -0.883,-16.008 4.877,-20.34 0.769,-0.822 1.841,-1.629 3.2,-2.412 C 12.163,444.43 11.092,435.618 10.229,426.807 9.211,416.17 8.585,405.532 8.349,394.895 8.13,384.258 8.664,373.622 9.18,362.985 c 0.258,-5.32 0.475,-10.639 0.951,-15.957 0.455,-5.319 1.122,-10.637 1.741,-15.955 0.037,-0.311 0.07,-0.621 0.107,-0.932 -3.38,-1.408 -5.757,-4.744 -5.757,-8.635 0,-4.418 3.066,-8.111 7.183,-9.091 0.008,-0.172 0.016,-0.348 0.022,-0.52 -4.129,-0.975 -7.205,-4.672 -7.205,-9.098 0,-4.287 2.887,-7.89 6.822,-8.996 -0.76,-8.849 -2.387,-17.7 -3.112,-26.551 -0.44,-5.317 -0.536,-10.635 -0.375,-15.955 0.105,-5.318 0.362,-10.636 0.75,-15.955 0.387,-5.319 0.913,-10.637 1.643,-15.956 0.579,-4.123 1.232,-8.245 2.119,-12.368 C 2.05,202.861 0.247,198.55 0.247,195.309 c 0,-0.348 -0.033,-0.881 -0.07,-1.548 -0.305,-5.403 -0.883,-16.005 4.876,-20.338 8.348,-8.941 52.656,-15.763 106.07,-15.763 55.816,0 101.692,7.45 106.981,16.982 2.373,2.916 3.438,6.559 3.873,9.996 0.783,0.582 1.437,1.356 1.84,2.32 1.003,2.392 0.215,5.067 -1.73,6.594 -0.045,0.712 -0.087,1.311 -0.087,1.757 0,2.64 -1.199,5.989 -8.131,9.386 1.169,4.897 1.967,9.793 2.655,14.689 0.729,5.319 1.257,10.637 1.643,15.956 0.389,5.319 0.647,10.637 0.75,15.955 0.163,5.32 0.067,10.638 -0.375,15.955 -0.725,8.851 -2.351,17.702 -3.11,26.551 3.934,1.106 6.821,4.709 6.821,8.996 0,4.426 -3.077,8.123 -7.206,9.098 0.005,0.172 0.015,0.348 0.022,0.52 4.117,0.98 7.184,4.673 7.184,9.091 0,3.891 -2.377,7.227 -5.756,8.635 0.035,0.311 0.068,0.621 0.106,0.932 0.618,5.318 1.284,10.636 1.74,15.955 0.476,5.318 0.693,10.637 0.95,15.957 0.518,10.637 1.051,21.273 0.831,31.91 -0.236,10.637 -0.861,21.275 -1.879,31.912 -0.792,8.106 -1.759,16.211 -3.188,24.317 4.51,1.787 7.476,3.722 8.603,5.75 2.372,2.918 3.435,6.56 3.872,9.996 0.782,0.582 1.436,1.355 1.841,2.322 M 98.645,479.53 c -4.455,-0.19 -8.908,-0.432 -13.243,-0.723 -3.105,-0.185 -5.793,2.141 -6.002,5.248 -0.208,3.108 2.142,5.793 5.248,6.002 4.424,0.297 8.972,0.547 13.517,0.738 l 0.244,0.006 c 3.003,0 5.499,-2.369 5.627,-5.398 0.132,-3.11 -2.282,-5.74 -5.391,-5.873 m -52.633,-5.104 c -4.632,-0.769 -8.951,-1.603 -12.84,-2.478 -3.04,-0.682 -6.054,1.222 -6.739,4.261 -0.683,3.038 1.225,6.055 4.262,6.739 4.096,0.924 8.629,1.797 13.471,2.601 0.312,0.051 0.623,0.078 0.929,0.078 2.708,0 5.097,-1.957 5.556,-4.714 0.51,-3.075 -1.567,-5.977 -4.639,-6.487 m 79.18,5.588 h -0.034 c -4.377,0.028 -8.81,-0.002 -13.26,-0.084 h -0.105 c -3.066,0 -5.579,2.457 -5.634,5.533 -0.058,3.114 2.42,5.684 5.532,5.741 3.426,0.064 6.871,0.095 10.241,0.095 1.098,0 2.195,-0.004 3.294,-0.009 3.114,-0.02 5.623,-2.559 5.604,-5.672 -0.019,-3.102 -2.539,-5.604 -5.638,-5.604 m -52.994,-2.267 c -4.509,-0.426 -8.931,-0.909 -13.146,-1.436 -3.094,-0.391 -5.908,1.801 -6.296,4.893 -0.386,3.088 1.803,5.906 4.893,6.295 4.33,0.543 8.869,1.039 13.492,1.474 0.181,0.018 0.359,0.026 0.536,0.026 2.875,0 5.331,-2.19 5.606,-5.11 0.292,-3.099 -1.986,-5.849 -5.085,-6.142 m 79.444,1.416 c -4.317,0.259 -8.767,0.461 -13.229,0.603 -3.113,0.098 -5.556,2.701 -5.458,5.815 0.097,3.05 2.6,5.459 5.632,5.459 l 0.182,-0.004 c 4.566,-0.145 9.125,-0.352 13.549,-0.618 3.107,-0.185 5.476,-2.857 5.29,-5.964 -0.187,-3.108 -2.843,-5.461 -5.966,-5.291 m 52.02,-7.127 c -3.978,0.976 -8.271,1.879 -12.761,2.683 -3.063,0.551 -5.103,3.481 -4.553,6.545 0.49,2.729 2.864,4.645 5.542,4.645 0.331,0 0.667,-0.032 1.003,-0.09 4.722,-0.848 9.251,-1.801 13.459,-2.834 3.023,-0.742 4.871,-3.797 4.13,-6.82 -0.743,-3.024 -3.797,-4.872 -6.82,-4.129 m -19.416,9.543 c 0.402,3.088 -1.774,5.918 -4.861,6.318 -4.338,0.566 -8.888,1.07 -13.529,1.498 -0.175,0.018 -0.351,0.025 -0.523,0.025 -2.881,0 -5.337,-2.197 -5.608,-5.121 -0.286,-3.101 1.996,-5.847 5.096,-6.132 4.499,-0.415 8.908,-0.901 13.106,-1.45 3.088,-0.398 5.916,1.776 6.319,4.862"
       id="path5280"
       inkscape:connector-curvature="0"
       style="fill:#0b0b09" />
  </g>
</svg>
